HIERARCHY
ROOT Hips
{
	OFFSET 0.000000 0.000000 0.000000
	CHANNELS 6 Xposition Yposition Zposition Zrotation Yrotation Xrotation 
	JOINT LHipJoint
	{
		OFFSET 0.000000 0.000000 0.000000
		CHANNELS 3 Zrotation Yrotation Xrotation
		JOINT LeftUpLeg
		{
			OFFSET 1.363060 -1.794630 0.839290
			CHANNELS 3 Zrotation Yrotation Xrotation
			JOINT LeftLeg
			{
				OFFSET 2.448110 -6.726130 0.000000
				CHANNELS 3 Zrotation Yrotation Xrotation
				JOINT LeftFoot
				{
					OFFSET 2.562200 -7.039590 0.000000
					CHANNELS 3 Zrotation Yrotation Xrotation
					JOINT LeftToeBase
					{
						OFFSET 0.157640 -0.433110 2.322550
						CHANNELS 3 Zrotation Yrotation Xrotation
						End Site
						{
							OFFSET 0.000000 0.000000 0.000000
						}
					}
				}
			}
		}
	}
	JOINT RHipJoint
	{
		OFFSET 0.000000 0.000000 0.000000
		CHANNELS 3 Zrotation Yrotation Xrotation
		JOINT RightUpLeg
		{
			OFFSET -1.305520 -1.794630 0.839290
			CHANNELS 3 Zrotation Yrotation Xrotation
			JOINT RightLeg
			{
				OFFSET -2.542530 -6.985550 0.000000
				CHANNELS 3 Zrotation Yrotation Xrotation
				JOINT RightFoot
				{
					OFFSET -2.568260 -7.056230 0.000000
					CHANNELS 3 Zrotation Yrotation Xrotation
					JOINT RightToeBase
					{
						OFFSET -0.164730 -0.452590 2.363150
						CHANNELS 3 Zrotation Yrotation Xrotation
						End Site
						{
							OFFSET 0.000000 0.000000 0.000000
						}
					}
				}
			}
		}
	}
	JOINT LowerBack
	{
		OFFSET 0.000000 0.000000 0.000000
		CHANNELS 3 Zrotation Yrotation Xrotation
		JOINT Spine
		{
			OFFSET 0.028270 2.035590 -0.193380
			CHANNELS 3 Zrotation Yrotation Xrotation
			JOINT Spine1
			{
				OFFSET 0.056720 2.048850 -0.042750
				CHANNELS 3 Zrotation Yrotation Xrotation
				JOINT Neck
				{
					OFFSET 0.000000 0.000000 0.000000
					CHANNELS 3 Zrotation Yrotation Xrotation
					JOINT Neck1
					{
						OFFSET -0.054170 1.746240 0.172020
						CHANNELS 3 Zrotation Yrotation Xrotation
						JOINT Head
						{
							OFFSET 0.104070 1.761360 -0.123970
							CHANNELS 3 Zrotation Yrotation Xrotation
							End Site
							{
								OFFSET 0.000000 0.000000 0.000000
							}
						}
					}
				}
				JOINT LeftShoulder
				{
					OFFSET 0.000000 0.000000 0.000000
					CHANNELS 3 Zrotation Yrotation Xrotation
					JOINT LeftArm
					{
						OFFSET 3.362410 1.200890 -0.311210
						CHANNELS 3 Zrotation Yrotation Xrotation
						JOINT LeftForeArm
						{
							OFFSET 4.983000 -0.000000 -0.000000
							CHANNELS 3 Zrotation Yrotation Xrotation
							JOINT LeftHand
							{
								OFFSET 3.483560 -0.000000 -0.000000
								CHANNELS 3 Zrotation Yrotation Xrotation
								JOINT LeftFingerBase
								{
									OFFSET 0.000000 0.000000 0.000000
									CHANNELS 3 Zrotation Yrotation Xrotation
									JOINT LeftHandIndex1
									{
										OFFSET 0.715260 -0.000000 -0.000000
										CHANNELS 3 Zrotation Yrotation Xrotation
										End Site
										{
											OFFSET 0.000000 0.000000 0.000000
										}
									}
								}
								JOINT LThumb
								{
									OFFSET 0.000000 0.000000 0.000000
									CHANNELS 3 Zrotation Yrotation Xrotation
									End Site
									{
										OFFSET 0.000000 0.000000 0.000000
									}
								}
							}
						}
					}
				}
				JOINT RightShoulder
				{
					OFFSET 0.000000 0.000000 0.000000
					CHANNELS 3 Zrotation Yrotation Xrotation
					JOINT RightArm
					{
						OFFSET -3.136600 1.374050 -0.404650
						CHANNELS 3 Zrotation Yrotation Xrotation
						JOINT RightForeArm
						{
							OFFSET -5.241900 -0.000000 -0.000000
							CHANNELS 3 Zrotation Yrotation Xrotation
							JOINT RightHand
							{
								OFFSET -3.444170 -0.000000 -0.000000
								CHANNELS 3 Zrotation Yrotation Xrotation
								JOINT RightFingerBase
								{
									OFFSET 0.000000 0.000000 0.000000
									CHANNELS 3 Zrotation Yrotation Xrotation
									JOINT RightHandIndex1
									{
										OFFSET -0.622530 -0.000000 -0.000000
										CHANNELS 3 Zrotation Yrotation Xrotation
										End Site
										{
											OFFSET 0.000000 0.000000 0.000000
										}
									}
								}
								JOINT RThumb
								{
									OFFSET 0.000000 0.000000 0.000000
									CHANNELS 3 Zrotation Yrotation Xrotation
									End Site
									{
										OFFSET 0.000000 0.000000 0.000000
									}
								}
							}
						}
					}
				}
			}
		}
	}
}
MOTION
Frames: 7
Frame Time: 0.008333
20.071820 17.574428 43.731672 175.523580 -31.963289 -158.870527 -8.604801 -1.269430 5.032268 -8.182249 -5.329607 -5.697795 -0.141223 9.297152 26.741386 2.083793 0.161322 22.174679 3.483100 -11.438900 -33.774700 2.723252 5.227407 -6.959617 8.996300 -3.079372 -61.347813 -5.427431 -15.507110 44.659119 -0.154361 -1.073720 7.937310 -1.533400 7.817800 -22.162000 -2.013506 -4.097090 20.402840 2.023135 -5.174095 -1.192984 4.513111 -3.244868 -3.464919 -2.651061 2.738818 -12.950114 3.797248 3.520484 5.876785 0.431600 1.481300 7.458500 -6.852106 -4.855046 -0.793852 -60.697655 0.367161 34.667245 84.821663 -58.431691 -68.480672 -0.636654 -1.841285 -1.692385 21.436767 -5.904769 -1.601800 -7.125000 0.000000 0.000000 -3.387000 25.726500 1.583700 6.066136 3.597689 -2.357309 58.646535 -35.792509 35.634863 -35.686731 47.995638 -20.977376 1.786203 0.775864 -4.332281 -25.239355 -3.965216 2.346500 7.125000 0.000000 0.000000 -0.353200 -35.139300 -0.085500 
19.900293 17.656499 43.361885 175.442708 -31.733763 -159.000517 -8.744424 -1.223387 5.181272 -7.996902 -5.345546 -5.421741 -0.089880 9.365777 26.793315 2.183480 1.689857 27.959563 3.044700 -10.767000 -31.498000 2.862848 5.371758 -7.128014 8.985148 -3.273335 -60.453090 -4.567956 -14.794934 41.653028 0.078921 -2.448716 10.534717 -1.506400 7.751900 -21.963100 -1.883528 -4.157765 20.479441 2.010640 -5.224651 -1.130287 4.393633 -3.305018 -3.248032 -3.012938 2.832748 -13.134756 3.899392 3.767646 6.282381 0.612300 1.588200 7.653100 -6.839791 -4.803345 -0.798900 -61.030832 0.722917 34.800659 85.918745 -58.646015 -69.263807 -0.633159 -1.814268 -1.412244 21.845410 -5.891918 -1.636300 -7.125000 0.000000 0.000000 -3.088000 25.707500 1.444800 5.986571 3.590331 -2.375803 58.990906 -36.154561 35.579052 -35.849222 48.184440 -21.096248 2.013014 0.020205 -3.545551 -31.470786 3.990059 -2.662500 7.125000 0.000000 0.000000 -5.141700 -25.148000 -2.478800 
19.726581 17.722759 42.993449 175.294808 -31.474494 -159.182691 -8.828440 -1.238245 5.172385 -7.997944 -5.496100 -5.418535 0.193132 9.766025 27.805199 2.433038 2.726951 32.524820 2.571800 -9.967300 -28.870900 2.964996 5.472680 -7.216826 9.035355 -3.506928 -59.781909 -4.058902 -14.309291 39.715253 0.293462 -3.685901 12.371602 -1.440300 7.587300 -21.467500 -1.846077 -4.178682 20.640088 2.014717 -5.251065 -1.054511 4.363527 -3.342775 -3.040646 -3.250574 2.878079 -13.050733 3.801212 3.894235 6.511624 0.635400 1.623700 7.712500 -6.805535 -4.736476 -0.801206 -61.608439 1.426156 34.830570 87.316517 -58.926897 -70.265791 -0.618612 -1.776897 -1.139502 22.104388 -5.848772 -1.651100 -7.125000 0.000000 0.000000 -2.910800 25.711100 1.361500 5.954004 3.545363 -2.374684 59.153186 -36.262978 35.693309 -35.873246 48.243928 -21.094239 1.917137 -0.203948 -2.892100 -31.217325 6.855252 -4.590300 7.125000 0.000000 0.000000 -4.601800 -21.568300 -2.596100 
19.554638 17.774560 42.622101 175.111405 -31.262437 -159.401695 -8.880275 -1.274291 5.125126 -8.055850 -5.810516 -5.406230 0.495197 10.214409 29.067709 2.913743 2.833054 36.395484 1.935000 -8.729400 -24.952600 3.080002 5.558027 -7.264113 9.268500 -3.934746 -59.048972 -3.651593 -13.863710 38.014605 0.575637 -5.141673 13.878178 -1.429100 7.559200 -21.382900 -1.794770 -4.220734 20.897348 2.014512 -5.308896 -0.996493 4.312285 -3.381872 -2.946621 -3.511173 2.909451 -12.839205 3.711129 4.000740 6.740175 0.664200 1.648700 7.752500 -6.763754 -4.644927 -0.819599 -62.292863 2.690209 34.709265 89.260386 -59.304937 -71.703173 -0.573863 -1.723252 -0.957668 21.843840 -6.056638 -1.735300 -7.125000 0.000000 0.000000 -3.146100 25.433800 1.492200 5.913156 3.495865 -2.370349 59.313225 -36.377947 35.890690 -35.957374 48.307661 -21.128633 2.032517 -0.058563 -2.151877 -32.312286 4.065765 -2.822600 7.125000 0.000000 0.000000 -5.773600 -24.970900 -2.810100 
19.383318 17.794428 42.256891 174.978537 -31.099650 -159.766644 -8.853101 -1.383871 4.942215 -8.229513 -6.013138 -5.729500 0.938243 10.841327 31.026718 3.324217 2.218603 38.767580 1.065400 -6.562000 -18.424000 3.238759 5.615311 -7.200226 9.811639 -4.597590 -58.076377 -3.532033 -13.621703 37.103446 1.097339 -7.312410 15.069717 -1.352500 7.362100 -20.792800 -1.678989 -4.139709 21.301695 2.029068 -5.203183 -0.910031 4.281313 -3.341032 -2.878864 -3.797699 2.816951 -12.531075 3.621917 3.938318 6.876046 0.671100 1.592800 7.728200 -6.727198 -4.587311 -0.832763 -63.218591 3.391727 35.009705 89.295680 -59.354771 -71.566817 -0.564094 -1.693774 -0.726905 21.566574 -5.856579 -1.642500 -7.125000 0.000000 0.000000 -3.370100 25.622400 1.583900 5.898664 3.487860 -2.349850 59.511149 -36.068944 35.992246 -35.990524 48.271875 -21.070242 1.906763 0.262695 -2.203593 -28.918038 0.412467 -0.117900 7.125000 0.000000 0.000000 -3.356500 -29.741600 -1.251100 
19.211791 17.819497 41.892928 174.869605 -30.852741 -160.117764 -8.763814 -1.491099 4.734068 -8.472433 -6.110793 -6.087436 1.543808 11.570513 33.326311 3.596428 1.897668 40.680156 0.650500 -5.159200 -14.363100 3.334702 5.652379 -7.143210 10.214049 -5.019664 -57.496978 -3.483407 -13.470443 36.530386 1.462451 -8.871964 16.034927 -1.269100 7.140500 -20.132100 -1.591352 -4.079619 21.675198 2.038852 -5.135153 -0.829994 4.240237 -3.316991 -2.791582 -4.068703 2.791325 -12.282415 3.535834 3.963523 7.057232 0.690800 1.578100 7.736500 -6.684237 -4.517946 -0.845711 -64.050672 4.270427 35.131043 90.080247 -59.509973 -72.026718 -0.551759 -1.652388 -0.401919 21.571118 -5.781543 -1.627300 -7.125000 0.000000 0.000000 -3.384400 25.659300 1.587700 5.870782 3.471370 -2.333678 59.724836 -35.886883 36.041745 -36.065801 48.299834 -21.079907 1.891399 0.288973 -1.956004 -28.590715 -0.124878 0.217300 7.125000 0.000000 0.000000 -3.107600 -30.400200 -1.109200 
19.040784 17.831147 41.532086 174.796250 -30.588636 -160.529523 -8.605580 -1.625341 4.461531 -8.791385 -6.169852 -6.597715 2.272026 12.379216 36.063701 3.727358 1.243309 41.508708 0.382600 -3.972300 -10.998900 3.418775 5.666269 -7.037102 10.702582 -5.445211 -56.975829 -3.575608 -13.447887 36.440812 1.835187 -10.377589 16.800892 -1.117200 6.714500 -18.872300 -1.489863 -3.985243 22.115687 2.054302 -5.026963 -0.746220 4.208987 -3.269896 -2.735970 -4.328525 2.745341 -11.975718 3.440208 3.951382 7.215995 0.696200 1.545300 7.724000 -6.634640 -4.449800 -0.861449 -64.979265 5.207794 35.239519 90.689721 -59.640655 -72.340309 -0.545910 -1.608719 -0.028454 21.611182 -5.706264 -1.615900 -7.125000 0.000000 0.000000 -3.367700 25.693600 1.577200 5.849046 3.460829 -2.310537 59.944043 -35.562434 36.053487 -36.142497 48.308510 -21.082823 1.865881 0.339850 -1.825298 -27.996510 -0.897173 0.683200 7.125000 0.000000 0.000000 -2.639100 -31.345000 -0.881900 
